<svg xmlns="http://www.w3.org/2000/svg" version="1.0" width="474.000000pt" height="234.000000pt" viewBox="0 0 474.000000 234.000000" preserveAspectRatio="xMidYMid meet">

<g transform="translate(0.000000,234.000000) scale(0.100000,-0.100000)" fill="currentcolor" stroke="none">
<path d="M344 2200 c-32 -13 -64 -59 -64 -92 0 -17 10 -39 25 -53 l24 -25 639 0 c607 0 641 -1 663 -18 33 -27 30 -78 -5 -109 l-27 -23 -505 0 c-540 0 -548 -1 -574 -49 -19 -37 -12 -88 16 -110 26 -21 35 -21 585 -21 546 0 559 0 579 -20 34 -34 19 -98 -27 -119 -16 -7 -159 -11 -449 -11 l-426 0 -29 -29 c-45 -45 -40 -110 12 -136 23 -13 105 -15 498 -15 521 0 501 3 501 -65 0 -22 -8 -41 -22 -55 -21 -19 -33 -20 -361 -20 -296 0 -343 -2 -374 -17 -62 -29 -79 -114 -30 -148 16 -11 54 -15 158 -15 74 0 138 -2 141 -5 2 -3 -1 -58 -9 -122 -42 -383 -44 -415 -28 -440 14 -21 22 -23 105 -23 65 0 90 3 90 13 0 23 62 142 96 183 74 91 226 164 339 164 69 0 171 -32 224 -70 76 -56 138 -168 140 -252 l1 -38 450 0 c353 0 450 3 450 13 0 11 16 164 60 582 116 1112 112 1059 101 1088 -6 15 -25 36 -43 47 -33 20 -51 20 -1468 19 -789 0 -1445 -4 -1456 -9z"></path>
<path d="M3386 1912 c-3 -5 -10 -53 -15 -108 -134 -1263 -141 -1336 -135 -1345 3 -5 47 -9 99 -9 l93 0 17 53 c94 291 458 413 669 225 68 -60 111 -140 122 -224 l6 -54 75 0 c68 0 77 2 103 28 31 31 30 25 61 317 40 372 36 449 -24 570 -26 53 -291 429 -340 482 -63 69 -86 73 -428 73 -164 0 -300 -4 -303 -8z m602 -187 c24 -17 269 -357 282 -390 9 -25 3 -44 -23 -72 l-20 -23 -360 0 -360 0 7 58 c6 52 46 432 46 439 0 2 91 3 203 3 167 0 206 -3 225 -15z"></path>
<path d="M1770 723 c-91 -32 -176 -108 -221 -198 -20 -42 -24 -65 -24 -145 0 -72 4 -103 18 -127 28 -52 76 -102 126 -131 42 -24 55 -27 146 -27 89 0 105 3 151 27 175 92 257 304 178 460 -28 56 -95 117 -152 138 -64 24 -158 25 -222 3z m166 -217 c28 -28 34 -41 34 -77 0 -83 -59 -139 -146 -139 -52 0 -104 53 -104 107 0 75 68 143 144 143 30 0 45 -7 72 -34z"></path>
<path d="M3737 716 c-272 -112 -321 -474 -80 -596 41 -21 62 -25 143 -25 89 0 99 2 158 34 76 41 135 104 170 179 36 77 38 205 5 268 -35 67 -70 101 -135 133 -80 40 -173 43 -261 7z m169 -195 c42 -25 59 -76 45 -129 -17 -63 -72 -102 -141 -102 -32 0 -48 6 -70 28 -104 104 40 280 166 203z"></path>
</g>
</svg>